/* XPM */
static char * btrfs_tools_snapshot_xpm[] = {
"32 32 533 2",
"  	c None",
". 	c #FDFFFF",
"+ 	c #F9FAFB",
"@ 	c #FBFBFA",
"# 	c #FBF9F9",
"$ 	c #FFFFFF",
"% 	c #F5EEEE",
"& 	c #C39F9B",
"* 	c #9B5D56",
"= 	c #8F4940",
"- 	c #8B4138",
"; 	c #C4A09B",
"> 	c #F5EFEF",
", 	c #F6F7F7",
"' 	c #ECE3E2",
") 	c #AB7B74",
"! 	c #701A0F",
"~ 	c #751F14",
"{ 	c #792419",
"] 	c #7B251A",
"^ 	c #7C251A",
"/ 	c #711A0F",
"( 	c #AC7B74",
"_ 	c #EDE4E2",
": 	c #F7F8F8",
"< 	c #B58D88",
"[ 	c #792B21",
"} 	c #742115",
"| 	c #7B2419",
"1 	c #7D2419",
"2 	c #7E2319",
"3 	c #7E2419",
"4 	c #7E2519",
"5 	c #B68E89",
"6 	c #F5F4F4",
"7 	c #99635D",
"8 	c #6D1A0E",
"9 	c #752419",
"0 	c #782419",
"a 	c #7F2116",
"b 	c #802015",
"c 	c #822319",
"d 	c #832419",
"e 	c #812117",
"f 	c #7E1F15",
"g 	c #7D2218",
"h 	c #7C2419",
"i 	c #762419",
"j 	c #9B645E",
"k 	c #F7F6F6",
"l 	c #96635B",
"m 	c #6E1F15",
"n 	c #732217",
"o 	c #762217",
"p 	c #7A2317",
"q 	c #7D2015",
"r 	c #7C1A10",
"s 	c #B17870",
"t 	c #DAC1BD",
"u 	c #E4D3D1",
"v 	c #E4D5D3",
"w 	c #E1CECC",
"x 	c #C69D99",
"y 	c #8E392F",
"z 	c #78180C",
"A 	c #7A2217",
"B 	c #772217",
"C 	c #97645C",
"D 	c #EAECEC",
"E 	c #AD8883",
"F 	c #65180C",
"G 	c #6E2116",
"H 	c #732116",
"I 	c #782116",
"J 	c #7C2116",
"K 	c #A86961",
"L 	c #F5F0F0",
"M 	c #FCFFFF",
"N 	c #ECEAEA",
"O 	c #E1D9D8",
"P 	c #E0D7D6",
"Q 	c #E5E0DF",
"R 	c #F5F8F8",
"S 	c #CAA6A2",
"T 	c #863227",
"U 	c #761E13",
"V 	c #6F2116",
"W 	c #66180C",
"X 	c #AE8984",
"Y 	c #EDEEEE",
"Z 	c #E0D9D8",
"` 	c #6B271D",
" .	c #692015",
"..	c #6E2115",
"+.	c #732015",
"@.	c #6F1104",
"#.	c #D0B2AE",
"$.	c #FAFBFB",
"%.	c #E9E9E8",
"&.	c #946159",
"*.	c #89372C",
"=.	c #822217",
"-.	c #802115",
";.	c #873024",
">.	c #8A463C",
",.	c #BCAAA7",
"'.	c #EFEAE9",
").	c #8F473E",
"!.	c #711E12",
"~.	c #6F2115",
"{.	c #6A2015",
"].	c #E3DCDB",
"^.	c #F0F3F4",
"/.	c #99716B",
"(.	c #621B10",
"_.	c #681F14",
":.	c #6D1F14",
"<.	c #711D12",
"[.	c #C7A7A3",
"}.	c #FBFEFE",
"|.	c #CBBAB8",
"1.	c #701B0E",
"2.	c #851F11",
"3.	c #852013",
"4.	c #AD6C64",
"5.	c #A9665D",
"6.	c #862114",
"7.	c #771205",
"8.	c #93655E",
"9.	c #F1F0EF",
"0.	c #EFEBEA",
"a.	c #7E3127",
"b.	c #6E2014",
"c.	c #691F14",
"d.	c #9B736C",
"e.	c #F3F6F7",
"f.	c #E2DFDE",
"g.	c #561309",
"h.	c #611D13",
"i.	c #651E13",
"j.	c #6B1E12",
"k.	c #8A483F",
"l.	c #D6CAC8",
"m.	c #792316",
"n.	c #802013",
"o.	c #822114",
"p.	c #831E11",
"q.	c #B37D76",
"r.	c #AF756C",
"s.	c #831F11",
"t.	c #832114",
"u.	c #802114",
"v.	c #7B1D10",
"w.	c #95675F",
"x.	c #CAAFAB",
"y.	c #631105",
"z.	c #671E13",
"A.	c #621D13",
"B.	c #571309",
"C.	c #E4E2E1",
"D.	c #DADCDC",
"E.	c #AA918C",
"F.	c #56160B",
"G.	c #5E1D12",
"H.	c #631D12",
"I.	c #601105",
"J.	c #D3BFBC",
"K.	c #7A372C",
"L.	c #7A1F11",
"M.	c #7D2013",
"N.	c #802113",
"O.	c #801E10",
"P.	c #B17C75",
"Q.	c #AD736B",
"R.	c #811E10",
"S.	c #7E2013",
"T.	c #7B2113",
"U.	c #6D0F02",
"V.	c #C1ADAB",
"W.	c #7F3F37",
"X.	c #631C10",
"Y.	c #5F1C12",
"Z.	c #57170C",
"`.	c #AC928E",
" +	c #DDDFDF",
".+	c #D8D9DA",
"++	c #7A5048",
"@+	c #551A10",
"#+	c #5B1C11",
"$+	c #5F1B0F",
"%+	c #733026",
"&+	c #C1ACA9",
"*+	c #6D1306",
"=+	c #761F12",
"-+	c #792012",
";+	c #7C2012",
">+	c #7D1E0F",
",+	c #AF7C74",
"'+	c #AC736B",
")+	c #7D1E10",
"!+	c #7A2012",
"~+	c #771F12",
"{+	c #731E11",
"]+	c #85453C",
"^+	c #C2A8A4",
"/+	c #5E180C",
"(+	c #5B1C10",
"_+	c #7B514A",
":+	c #D9D9D9",
"<+	c #683C32",
"[+	c #521A10",
"}+	c #561A0F",
"|+	c #602217",
"1+	c #9B726B",
"2+	c #9C706A",
"3+	c #74281D",
"4+	c #711D10",
"5+	c #751F11",
"6+	c #781F11",
"7+	c #791C0E",
"8+	c #AC7871",
"9+	c #A77168",
"0+	c #791D0F",
"a+	c #791F11",
"b+	c #761F11",
"c+	c #721E11",
"d+	c #6F1E11",
"e+	c #742E23",
"f+	c #E8E3E2",
"g+	c #DCD0CE",
"h+	c #5C1A0F",
"i+	c #561B10",
"j+	c #521B10",
"k+	c #693B33",
"l+	c #DCDCDC",
"m+	c #DEDDDD",
"n+	c #5F342B",
"o+	c #4E190E",
"p+	c #51180C",
"q+	c #7B524B",
"r+	c #EDEBEB",
"s+	c #F4F5F4",
"t+	c #EEEBEB",
"u+	c #A27F79",
"v+	c #6A190C",
"w+	c #6F1D0F",
"x+	c #721E10",
"y+	c #731C0C",
"z+	c #BA958E",
"A+	c #B48A83",
"B+	c #731A0C",
"C+	c #731F10",
"D+	c #701E0F",
"E+	c #6D1C0F",
"F+	c #691C0F",
"G+	c #682216",
"H+	c #E0D7D5",
"I+	c #DDD4D3",
"J+	c #5A1D11",
"K+	c #52190D",
"L+	c #4E1A0E",
"M+	c #60342B",
"N+	c #E1E0E0",
"O+	c #DCDBDB",
"P+	c #5B3229",
"Q+	c #49180D",
"R+	c #4E180D",
"S+	c #551F14",
"T+	c #D6CECD",
"U+	c #F2F2F2",
"V+	c #E2E2E1",
"W+	c #581205",
"X+	c #671B0E",
"Y+	c #6A1C0E",
"Z+	c #6E1C0D",
"`+	c #8B5C53",
" @	c #C8B9B6",
".@	c #7B3023",
"+@	c #6D1B0D",
"@@	c #6B1B0F",
"#@	c #681C0E",
"$@	c #641B0E",
"%@	c #662419",
"&@	c #DED6D6",
"*@	c #D8CFCD",
"=@	c #541B0F",
"-@	c #4E190D",
";@	c #4A180D",
">@	c #5C332A",
",@	c #DEDEDD",
"'@	c #D1D1D1",
")@	c #5C372E",
"!@	c #45160C",
"~@	c #49160B",
"{@	c #4C1509",
"]@	c #745047",
"^@	c #F8FBFD",
"/@	c #7B5048",
"(@	c #5C190A",
"_@	c #601B0D",
":@	c #631B0D",
"<@	c #661B0D",
"[@	c #681B0E",
"}@	c #67190B",
"|@	c #6E2F23",
"1@	c #C7BCBA",
"2@	c #6A2013",
"3@	c #631A0C",
"4@	c #611B0D",
"5@	c #5E1B0E",
"6@	c #6B3227",
"7@	c #E7E4E4",
"8@	c #C7BAB8",
"9@	c #4B1509",
"0@	c #49160C",
"a@	c #45170C",
"b@	c #5D372E",
"c@	c #D4D4D4",
"d@	c #CACBCB",
"e@	c #694A42",
"f@	c #40150A",
"g@	c #44160B",
"h@	c #48160B",
"i@	c #410800",
"j@	c #927D77",
"k@	c #561D10",
"l@	c #56190C",
"m@	c #591A0C",
"n@	c #5C1B0D",
"o@	c #5E1B0C",
"p@	c #611A0D",
"q@	c #621B0C",
"r@	c #62190C",
"s@	c #602A1D",
"t@	c #B9AAA7",
"u@	c #5E1C0F",
"v@	c #5A1A0D",
"w@	c #561609",
"x@	c #845C53",
"y@	c #EFF2F2",
"z@	c #8E746E",
"A@	c #461207",
"B@	c #41150A",
"C@	c #6A4A42",
"D@	c #CCCDCE",
"E@	c #BFC0C0",
"F@	c #958580",
"G@	c #381004",
"H@	c #3F150A",
"I@	c #431409",
"J@	c #47150A",
"K@	c #49160A",
"L@	c #4D170A",
"M@	c #50170A",
"N@	c #52170A",
"O@	c #55180B",
"P@	c #57190B",
"Q@	c #58190B",
"R@	c #591A0B",
"S@	c #591809",
"T@	c #571D0F",
"U@	c #561A0B",
"V@	c #53180B",
"W@	c #4E1308",
"X@	c #DEDBDB",
"Y@	c #DEDFDF",
"Z@	c #421208",
"`@	c #3F1509",
" #	c #380F04",
".#	c #978682",
"+#	c #C2C3C3",
"@#	c #CDCBCA",
"##	c #310901",
"$#	c #3B1309",
"%#	c #3D1409",
"&#	c #411309",
"*#	c #451409",
"=#	c #451308",
"-#	c #663B31",
";#	c #602F25",
">#	c #4C1205",
",#	c #51180A",
"'#	c #52180B",
")#	c #51180B",
"!#	c #4E1609",
"~#	c #4E180C",
"{#	c #DFE0E0",
"]#	c #765B55",
"^#	c #401106",
"/#	c #3F1409",
"(#	c #3B1409",
"_#	c #310A01",
":#	c #CFCDCD",
"<#	c #D5D7D7",
"[#	c #75605B",
"}#	c #340F05",
"|#	c #391308",
"1#	c #3B1308",
"2#	c #3F1408",
"3#	c #320000",
"4#	c #DADDDC",
"5#	c #D4D2D1",
"6#	c #886A65",
"7#	c #430C00",
"8#	c #481204",
"9#	c #4B1609",
"0#	c #4A1407",
"a#	c #592A20",
"b#	c #BDB4B1",
"c#	c #DFE0E1",
"d#	c #A19592",
"e#	c #3E1409",
"f#	c #3C1408",
"g#	c #381208",
"h#	c #76615B",
"i#	c #B1B1B1",
"j#	c #C2BFBE",
"k#	c #38180E",
"l#	c #341207",
"m#	c #371207",
"n#	c #3A1207",
"o#	c #3C1307",
"p#	c #553830",
"q#	c #C3C0BF",
"r#	c #DCDFDF",
"s#	c #BFB7B5",
"t#	c #81665F",
"u#	c #633C32",
"v#	c #60392F",
"w#	c #6C4A43",
"x#	c #A4928D",
"y#	c #D1D2D2",
"z#	c #948883",
"A#	c #300700",
"B#	c #3A1307",
"C#	c #39180F",
"D#	c #C4C1C0",
"E#	c #B3B3B3",
"F#	c #C1C1C1",
"G#	c #7F716B",
"H#	c #290800",
"I#	c #311105",
"J#	c #331005",
"K#	c #351105",
"L#	c #371004",
"M#	c #401E13",
"N#	c #786863",
"O#	c #CCCCCD",
"P#	c #DDDFE0",
"Q#	c #D7D8D9",
"R#	c #D6D8D8",
"S#	c #D9DBDC",
"T#	c #DBDEDE",
"U#	c #A09996",
"V#	c #51352D",
"W#	c #361005",
"X#	c #361105",
"Y#	c #331105",
"Z#	c #321005",
"`#	c #81716C",
" $	c #C3C3C4",
".$	c #5F4A43",
"+$	c #2B0E03",
"@$	c #2F1005",
"#$	c #301005",
"$$	c #321105",
"%$	c #341205",
"&$	c #320C00",
"*$	c #290500",
"=$	c #513831",
"-$	c #6B5955",
";$	c #705E5A",
">$	c #5F4B44",
",$	c #381910",
"'$	c #2C0800",
")$	c #341105",
"!$	c #2F1105",
"~$	c #DDE0E1",
"{$	c #CDCCCC",
"]$	c #5C4A42",
"^$	c #230800",
"/$	c #2C1004",
"($	c #2E1004",
"_$	c #301104",
":$	c #2F0F02",
"<$	c #2F0E02",
"[$	c #2F0D01",
"}$	c #301003",
"|$	c #2F1004",
"1$	c #240800",
"2$	c #CECECD",
"3$	c #D9DCDC",
"4$	c #7A6D69",
"5$	c #2D150C",
"6$	c #260B00",
"7$	c #290F03",
"8$	c #2A0F04",
"9$	c #2B0F04",
"0$	c #2B0F03",
"a$	c #2C0F03",
"b$	c #2A0F03",
"c$	c #290F04",
"d$	c #2E140C",
"e$	c #7A6E6A",
"f$	c #DADCDD",
"g$	c #BBBBBB",
"h$	c #BCB9B8",
"i$	c #695B55",
"j$	c #1E0500",
"k$	c #210800",
"l$	c #250C01",
"m$	c #270E02",
"n$	c #270D02",
"o$	c #260D01",
"p$	c #6A5A55",
"q$	c #BCBAB8",
"r$	c #BCBCBC",
"s$	c #A2A2A2",
"t$	c #CBCCCC",
"u$	c #C1C0BF",
"v$	c #847A76",
"w$	c #503F38",
"x$	c #402D24",
"y$	c #3A2621",
"z$	c #847A77",
"A$	c #C2C0C0",
"B$	c #CBCCCD",
"C$	c #A3A3A3",
"D$	c #A6A7A7",
"E$	c #B5B5B5",
"F$	c #BEBEBE",
"G$	c #CCCBCB",
"H$	c #CBCACA",
"                                                                ",
"                                                                ",
"                        . + @ # # @ + .                         ",
"                    $ % & * = - - = * ; > $                     ",
"                , ' ) ! ~ { ] ^ ^ ] { ~ / ( _ :                 ",
"              $ < [ } { | 1 2 3 4 3 1 | { } [ 5 $               ",
"            6 7 8 9 0 | 2 a b c d e f g h 0 i 8 j k             ",
"          $ l m n o p q r s t u v w x y z A B n m C $           ",
"        D E F G H I J K L M N O P Q R $ S T U H V W X Y         ",
"        Z `  ...+.@.#.$.%.&.*.=.-.;.>.,.$ '.).!.~.{.` ].        ",
"      ^./.(._.:.<.[.}.|.1.2.3.4.5.3.6.7.8.9.0.a.b.c.(.d.e.      ",
"      f.g.h.i.j.k.k l.m.n.o.p.q.r.s.t.u.v.w.$ x.y.z.A.B.C.      ",
"    D.E.F.G.H.I.J.M K.L.M.N.O.P.Q.R.N.S.T.U.V.$ W.X.Y.Z.`. +    ",
"    .+++@+#+$+%+$ &+*+=+-+;+>+,+'+)+;+!+~+{+]+: ^+/+(+@+_+D.    ",
"    :+<+[+}+|+1+. 2+3+4+5+6+7+8+9+0+a+b+c+d+e+f+g+h+i+j+k+l+    ",
"    m+n+o+p+q+r+s+t+u+v+w+x+y+z+A+B+C+D+E+F+G+H+I+J+K+L+M+N+    ",
"    O+P+Q+R+S+T+U+V+W+X+Y+E+Z+`+ @.@+@@@#@$@%@&@*@=@-@;@>@,@    ",
"    '@)@!@~@{@]@^@/@(@_@:@<@[@}@|@1@2@3@4@5@6@7@8@9@0@a@b@c@    ",
"    d@e@f@g@h@i@j@k@l@m@n@o@p@q@r@s@t@u@v@w@x@y@z@A@g@B@C@D@    ",
"    E@F@G@H@I@J@K@L@M@N@O@P@Q@R@R@S@T@U@V@W@X@Y@Z@I@`@ #.#+#    ",
"      @###$#%#&#*#=#-#;#>#,#'#V@V@'#)#!#~#t@{#]#^#/#(#_#:#      ",
"      <#[#}#|#1#2#3#4#5#6#7#8#9#9#0#7#a#b#c#d#e#f#g#}#h#.+      ",
"      i#j#k#l#m#n#o#p#q#r#s#t#u#v#w#x#r#y#z#A#B#m#l#C#D#E#      ",
"        F#G#H#I#J#K#L#M#N#O#P#Q#R#S#T#U#V#W#X#Y#Z#H#`# $        ",
"          r#.$+$@$#$$$%$&$*$=$-$;$>$,$'$)$$$I#!$+$>$~$          ",
"            {$]$^$/$/$($($_$:$<$[$<$}$|$($/$/$1$]$2$            ",
"              3$4$5$6$7$8$9$0$a$a$0$0$b$c$6$d$e$f$              ",
"                g$h$i$j$k$l$m$m$m$n$o$k$j$p$q$r$                ",
"                  s$t$u$v$w$x$y$y$x$w$z$A$B$C$                  ",
"                        D$E$F$G$H$F$E$D$                        ",
"                                                                ",
"                                                                "};
